{
  "accessors": [
    {
      "bufferView": 2,
      "componentType": 5126,
      "count": 1741,
      "max": [
        127.39944458007813,
        70.28621673583984,
        7.100000220816582e-05
      ],
      "min": [
        -127.32305145263672,
        -45.37232208251953,
        -331.1272888183594
      ],
      "type": "VEC3"
    },
    {
      "bufferView": 2,
      "byteOffset": 20892,
      "componentType": 5126,
      "count": 1741,
      "max": [
        0.999751627445221,
        0.9997736215591431,
        1.0
      ],
      "min": [
        -0.999751627445221,
        -0.9999876618385315,
        -1.0
      ],
      "type": "VEC3"
    },
    {
      "bufferView": 1,
      "componentType": 5126,
      "count": 1741,
      "max": [
        0.9979879856109619,
        0.9991049766540527
      ],
      "min": [
        0.0022249999456107616,
        0.0008580000139772892
      ],
      "type": "VEC2"
    },
    {
      "bufferView": 0,
      "componentType": 5125,
      "count": 6279,
      "type": "SCALAR"
    }
  ],
  "asset": {
    "extras": {
      "author": "DrewsDigitalDesigns (https://sketchfab.com/drewsdigitaldesigns)",
      "license": "CC-BY-4.0 (http://creativecommons.org/licenses/by/4.0/)",
      "source": "https://sketchfab.com/3d-models/tifa-itadaki-street-special-82924c34383444ffb59cfe211a89cf04",
      "title": "Tifa - Itadaki Street Special"
    },
    "generator": "Sketchfab-16.8.0",
    "version": "2.0"
  },
  "bufferViews": [
    {
      "buffer": 0,
      "byteLength": 25116,
      "name": "floatBufferViews",
      "target": 34963
    },
    {
      "buffer": 0,
      "byteLength": 13928,
      "byteOffset": 25116,
      "byteStride": 8,
      "name": "floatBufferViews",
      "target": 34962
    },
    {
      "buffer": 0,
      "byteLength": 41784,
      "byteOffset": 39044,
      "byteStride": 12,
      "name": "floatBufferViews",
      "target": 34962
    }
  ],
  "buffers": [
    {
      "byteLength": 80828,
      "uri": "scene.bin"
    }
  ],
  "images": [
    {
      "uri": "textures/0041_player02_tpltex00_baseColor.png"
    }
  ],
  "materials": [
    {
      "doubleSided": true,
      "name": "0041_player02_tpltex00",
      "pbrMetallicRoughness": {
        "baseColorTexture": {
          "index": 0
        },
        "metallicFactor": 0.0,
        "roughnessFactor": 0.6
      }
    }
  ],
  "meshes": [
    {
      "name": "Object_0",
      "primitives": [
        {
          "attributes": {
            "NORMAL": 1,
            "POSITION": 0,
            "TEXCOORD_0": 2
          },
          "indices": 3,
          "material": 0,
          "mode": 4
        }
      ]
    }
  ],
  "nodes": [
    {
      "children": [
        1
      ],
      "matrix": [
        -0.9999999403953552,
        0.0002567773626651615,
        5.701602804667727e-20,
        0.0,
        0.0,
        2.220446049250313e-16,
        -1.0,
        0.0,
        -0.0002567773626651615,
        -0.9999999403953552,
        -2.220445916901415e-16,
        0.0,
        0.0,
        0.0,
        0.0,
        1.0
      ],
      "name": "Sketchfab_model"
    },
    {
      "children": [
        2
      ],
      "name": "0041_player02out.obj.cleaner.materialmerger.gles"
    },
    {
      "mesh": 0,
      "name": "Object_2"
    }
  ],
  "samplers": [
    {
      "magFilter": 9729,
      "minFilter": 9987,
      "wrapS": 10497,
      "wrapT": 10497
    }
  ],
  "scene": 0,
  "scenes": [
    {
      "name": "Sketchfab_Scene",
      "nodes": [
        0
      ]
    }
  ],
  "textures": [
    {
      "sampler": 0,
      "source": 0
    }
  ]
}
