{
  "accessors": [
    {
      "bufferView": 2,
      "componentType": 5126,
      "count": 3848,
      "max": [
        0.6949289441108704,
        0.0800253227353096,
        0.2512691020965576
      ],
      "min": [
        -0.00014410290168598294,
        -0.07788021862506866,
        -0.2512689232826233
      ],
      "type": "VEC3"
    },
    {
      "bufferView": 2,
      "byteOffset": 46176,
      "componentType": 5126,
      "count": 3848,
      "max": [
        0.9994093179702759,
        0.9999940395355225,
        0.999763011932373
      ],
      "min": [
        -0.9989361763000488,
        -0.9999916553497314,
        -0.999763011932373
      ],
      "type": "VEC3"
    },
    {
      "bufferView": 1,
      "componentType": 5126,
      "count": 3848,
      "max": [
        0.9851261377334595,
        0.9832584857940674
      ],
      "min": [
        0.00823595467954874,
        0.010903477668762207
      ],
      "type": "VEC2"
    },
    {
      "bufferView": 1,
      "byteOffset": 30784,
      "componentType": 5126,
      "count": 3848,
      "max": [
        0.6957640051841736,
        0.2512689232826233
      ],
      "min": [
        0.0006909334333613515,
        -0.2512691020965576
      ],
      "type": "VEC2"
    },
    {
      "bufferView": 0,
      "componentType": 5125,
      "count": 15087,
      "type": "SCALAR"
    },
    {
      "bufferView": 2,
      "byteOffset": 92352,
      "componentType": 5126,
      "count": 1140,
      "max": [
        0.7724788784980774,
        0.06869849562644958,
        0.05318198725581169
      ],
      "min": [
        0.5726072192192078,
        -0.05990801751613617,
        -0.06187824904918671
      ],
      "type": "VEC3"
    },
    {
      "bufferView": 2,
      "byteOffset": 106032,
      "componentType": 5126,
      "count": 1140,
      "max": [
        0.9984127879142761,
        0.9995297789573669,
        0.9973016977310181
      ],
      "min": [
        -0.9963843822479248,
        -0.9999979734420776,
        -0.9999369978904724
      ],
      "type": "VEC3"
    },
    {
      "bufferView": 1,
      "byteOffset": 61568,
      "componentType": 5126,
      "count": 1140,
      "max": [
        0.9960449934005737,
        0.9936680197715759
      ],
      "min": [
        0.005929999984800816,
        0.002521991729736328
      ],
      "type": "VEC2"
    },
    {
      "bufferView": 1,
      "byteOffset": 70688,
      "componentType": 5126,
      "count": 1140,
      "max": [
        0.7733139395713806,
        0.06187824532389641
      ],
      "min": [
        0.573442280292511,
        -0.05318199098110199
      ],
      "type": "VEC2"
    },
    {
      "bufferView": 0,
      "byteOffset": 60348,
      "componentType": 5125,
      "count": 4446,
      "type": "SCALAR"
    }
  ],
  "asset": {
    "extras": {
      "author": "Free3Diz (https://sketchfab.com/Free3Diz)",
      "license": "CC-BY-4.0 (http://creativecommons.org/licenses/by/4.0/)",
      "source": "https://sketchfab.com/3d-models/school-girl-3d-model-b38d51241fe845c2afbf47ecaa0203cf",
      "title": "School Girl 3D Model"
    },
    "generator": "Sketchfab-16.0.0",
    "version": "2.0"
  },
  "bufferViews": [
    {
      "buffer": 0,
      "byteLength": 78132,
      "name": "floatBufferViews",
      "target": 34963
    },
    {
      "buffer": 0,
      "byteLength": 79808,
      "byteOffset": 78132,
      "byteStride": 8,
      "name": "floatBufferViews",
      "target": 34962
    },
    {
      "buffer": 0,
      "byteLength": 119712,
      "byteOffset": 157940,
      "byteStride": 12,
      "name": "floatBufferViews",
      "target": 34962
    }
  ],
  "buffers": [
    {
      "byteLength": 277652,
      "uri": "scene.bin"
    }
  ],
  "extensionsUsed": [
    "KHR_materials_unlit"
  ],
  "images": [
    {
      "uri": "textures/xiaofunv_b_1_baseColor.png"
    },
    {
      "uri": "textures/zhoubotong_c_1_baseColor.png"
    }
  ],
  "materials": [
    {
      "doubleSided": true,
      "extensions": {
        "KHR_materials_unlit": {}
      },
      "name": "xiaofunv_b_1",
      "pbrMetallicRoughness": {
        "baseColorTexture": {
          "index": 0
        },
        "metallicFactor": 0.0
      }
    },
    {
      "doubleSided": true,
      "extensions": {
        "KHR_materials_unlit": {}
      },
      "name": "zhoubotong_c_1",
      "pbrMetallicRoughness": {
        "baseColorTexture": {
          "index": 1
        },
        "metallicFactor": 0.0
      }
    }
  ],
  "meshes": [
    {
      "name": "Object_0",
      "primitives": [
        {
          "attributes": {
            "NORMAL": 1,
            "POSITION": 0,
            "TEXCOORD_0": 2,
            "TEXCOORD_1": 3
          },
          "indices": 4,
          "material": 0,
          "mode": 4
        }
      ]
    },
    {
      "name": "Object_1",
      "primitives": [
        {
          "attributes": {
            "NORMAL": 6,
            "POSITION": 5,
            "TEXCOORD_0": 7,
            "TEXCOORD_1": 8
          },
          "indices": 9,
          "material": 1,
          "mode": 4
        }
      ]
    }
  ],
  "nodes": [
    {
      "children": [
        1
      ],
      "matrix": [
        2.220446049250313e-16,
        -3.828568672208042e-16,
        1.0,
        0.0,
        1.0,
        6.162975822039155e-32,
        -2.220446049250313e-16,
        0.0,
        1.232595164407831e-32,
        1.0,
        3.828568672208042e-16,
        0.0,
        0.0,
        0.0,
        0.0,
        1.0
      ],
      "name": "Sketchfab_model"
    },
    {
      "children": [
        2
      ],
      "name": "root"
    },
    {
      "children": [
        3,
        5
      ],
      "matrix": [
        1.0,
        0.0,
        0.0,
        0.0,
        0.0,
        2.220446049250313e-16,
        1.0,
        0.0,
        0.0,
        -1.0,
        2.220446049250313e-16,
        0.0,
        0.0,
        0.0,
        0.0,
        1.0
      ],
      "name": "GLTF_SceneRootNode"
    },
    {
      "children": [
        4
      ],
      "matrix": [
        1.0300516055601646e-05,
        30.54948425292795,
        0.0,
        0.0,
        -30.54948425292795,
        1.0300516055601646e-05,
        0.0,
        0.0,
        0.0,
        0.0,
        30.549484252929688,
        0.0,
        0.0,
        0.0,
        0.0,
        1.0
      ],
      "name": "xiaofunv_b_1_2"
    },
    {
      "mesh": 0,
      "name": "Object_4"
    },
    {
      "children": [
        6
      ],
      "matrix": [
        1.0300516055601646e-05,
        30.54948425292795,
        0.0,
        0.0,
        -30.54948425292795,
        1.0300516055601646e-05,
        0.0,
        0.0,
        0.0,
        0.0,
        30.549484252929688,
        0.0,
        0.0,
        0.0,
        0.0,
        1.0
      ],
      "name": "zhoubotong_c_1_3"
    },
    {
      "mesh": 1,
      "name": "Object_6"
    }
  ],
  "samplers": [
    {
      "magFilter": 9729,
      "minFilter": 9987,
      "wrapS": 10497,
      "wrapT": 10497
    }
  ],
  "scene": 0,
  "scenes": [
    {
      "name": "Sketchfab_Scene",
      "nodes": [
        0
      ]
    }
  ],
  "textures": [
    {
      "sampler": 0,
      "source": 0
    },
    {
      "sampler": 0,
      "source": 1
    }
  ]
}
